<?xml version="1.0" encoding="UTF-8" standalone="no"?>
<svg
   width="32"
   height="16"
   fill="currentColor"
   class="bi bi-globe"
   viewBox="0 0 32 16"
   version="1.1"
   id="svg2404"
   sodipodi:docname="globe.svg"
   inkscape:version="1.2.2 (732a01da63, 2022-12-09)"
   xmlns:inkscape="http://www.inkscape.org/namespaces/inkscape"
   xmlns:sodipodi="http://sodipodi.sourceforge.net/DTD/sodipodi-0.dtd"
   xmlns="http://www.w3.org/2000/svg"
   xmlns:svg="http://www.w3.org/2000/svg">
  <defs
     id="defs2408" />
  <sodipodi:namedview
     id="namedview2406"
     pagecolor="#ffffff"
     bordercolor="#000000"
     borderopacity="0.25"
     inkscape:showpageshadow="2"
     inkscape:pageopacity="0.0"
     inkscape:pagecheckerboard="0"
     inkscape:deskcolor="#d1d1d1"
     showgrid="false"
     inkscape:zoom="17.65625"
     inkscape:cx="17.585841"
     inkscape:cy="9.061947"
     inkscape:window-width="1366"
     inkscape:window-height="745"
     inkscape:window-x="-8"
     inkscape:window-y="-8"
     inkscape:window-maximized="1"
     inkscape:current-layer="svg2404" />
  <path
     d="M 3.5648071,8 A 4.435193,4.435193 0 1 1 12.435193,8 4.435193,4.435193 0 0 1 3.5648071,8 Z M 7.7228005,4.1618949 C 7.3513531,4.2749923 6.9826777,4.6165022 6.6766494,5.1903053 A 4.4185609,4.4185609 0 0 0 6.4171905,5.7824035 h 1.30561 z M 5.8322995,5.7824035 A 5.1376166,5.1376166 0 0 1 6.1871149,4.9291833 3.7144741,3.7144741 0 0 1 6.5180912,4.4119289 3.8946537,3.8946537 0 0 0 4.8149771,5.7824035 Z M 5.5096392,7.7228004 C 5.5262712,7.2365924 5.5861463,6.7703427 5.6826117,6.3368026 H 4.4928712 A 3.8575091,3.8575091 0 0 0 4.1291854,7.7228004 Z M 6.2519796,6.3368026 A 6.9299889,6.9299889 0 0 0 6.0645927,7.7228004 H 7.7228005 V 6.3368026 Z m 2.02522,0 V 7.7228004 H 9.934853 A 6.9272169,6.9272169 0 0 0 9.7480204,6.3368026 Z M 6.0651471,8.2771995 A 6.9299889,6.9299889 0 0 0 6.2519796,9.6631976 H 7.7228005 V 8.2771995 Z m 2.2120525,0 V 9.6631976 H 9.7480204 C 9.8516934,9.239082 9.9176666,8.7717235 9.9354076,8.2771995 Z M 6.4171905,10.217596 c 0.076507,0.213998 0.1635478,0.412474 0.2594589,0.592098 0.3060283,0.573804 0.6752581,0.914759 1.0461511,1.028411 v -1.620509 z m 0.1009007,1.370475 A 3.7122564,3.7122564 0 0 1 6.1871149,11.070816 5.138171,5.138171 0 0 1 5.8322995,10.217596 H 4.8149771 a 3.8940994,3.8940994 0 0 0 1.7031141,1.370475 z M 5.6826117,9.6631976 A 7.5686566,7.5686566 0 0 1 5.5096392,8.2771995 H 4.1291854 c 0.034373,0.4934152 0.1613301,0.9607737 0.3636858,1.3859981 z M 9.481909,11.588071 a 3.8940994,3.8940994 0 0 0 1.703114,-1.370475 H 10.167701 A 5.1392798,5.1392798 0 0 1 9.8128852,11.070816 3.7078213,3.7078213 0 0 1 9.481909,11.588071 Z M 8.2771996,10.217596 v 1.620509 c 0.3714474,-0.113097 0.7401228,-0.454607 1.0461511,-1.028411 0.095911,-0.179624 0.1829518,-0.3781 0.259459,-0.592098 z M 10.317388,9.6631976 h 1.189741 C 11.709485,9.2379732 11.836442,8.7706147 11.870815,8.2771995 H 10.490361 A 7.5675481,7.5675481 0 0 1 10.317388,9.6631976 Z M 11.870815,7.7228004 A 3.8580635,3.8580635 0 0 0 11.507129,6.3368026 h -1.189741 c 0.09647,0.4335401 0.156341,0.8997898 0.172973,1.3859978 z M 9.8128852,4.9291833 c 0.1369365,0.2572412 0.2561318,0.5433111 0.3548158,0.8532202 h 1.017322 A 3.8940994,3.8940994 0 0 0 9.481909,4.4119289 C 9.6027677,4.5693783 9.7136477,4.7434595 9.8128852,4.9291833 Z M 9.5828097,5.7824035 A 4.4163434,4.4163434 0 0 0 9.3233507,5.1903053 C 9.0173224,4.6165022 8.648647,4.2755467 8.2771996,4.1618949 v 1.6205086 z"
     id="path2402"
     style="fill:#c3e3bd;fill-opacity:1;stroke-width:0.554399" />
  <path
     d="m 26.546814,12.715156 a 2.1973452,2.1973452 0 1 0 0,-4.3946901 2.1973452,2.1973452 0 0 0 0,4.3946901 z m 0.313907,-3.1390644 v 0.6278134 h 0.627813 a 0.31390655,0.31390655 0 0 1 0,0.627813 h -0.627813 v 0.627813 a 0.31390655,0.31390655 0 0 1 -0.627813,0 v -0.627813 h -0.627813 a 0.31390655,0.31390655 0 0 1 0,-0.627813 h 0.627813 V 9.5760916 a 0.31390655,0.31390655 0 0 1 0.627813,0 z M 25.605095,5.8092143 a 1.883439,1.883439 0 1 1 -3.766878,0 1.883439,1.883439 0 0 1 3.766878,0 z"
     id="path2"
     style="fill:#a8ffb9;fill-opacity:1;stroke-width:0.627813" />
  <path
     d="m 19.954779,10.831718 c 0,0.627813 0.627813,0.627813 0.627813,0.627813 h 3.299784 a 2.8207633,2.8207633 0 0 1 -0.16072,-0.94172 2.8188799,2.8188799 0 0 1 0.969343,-2.1301692 c -0.293188,-0.043319 -0.615257,-0.067175 -0.969343,-0.067175 -3.139064,0 -3.766877,1.8834382 -3.766877,2.5112512 z"
     id="path4"
     style="fill:#a8ffb9;fill-opacity:1;stroke-width:0.627813" />
  <path
     style="fill:none;fill-opacity:1;stroke:#a8ffb9;stroke-width:0.833359;stroke-linecap:round;stroke-linejoin:round;stroke-dasharray:none;stroke-opacity:1"
     d="M 0.41667956,0.4166799 H 31.612435 V 15.58332 H 0.41667956 Z"
     id="path906" />
</svg>
