<?xml version="1.0" encoding="UTF-8" standalone="no"?>
<svg
   width="16"
   height="16"
   fill="currentColor"
   class="bi bi-globe"
   viewBox="0 0 16 16"
   version="1.1"
   id="svg2404"
   sodipodi:docname="globe_not.svg"
   inkscape:version="1.2.2 (732a01da63, 2022-12-09)"
   xmlns:inkscape="http://www.inkscape.org/namespaces/inkscape"
   xmlns:sodipodi="http://sodipodi.sourceforge.net/DTD/sodipodi-0.dtd"
   xmlns="http://www.w3.org/2000/svg"
   xmlns:svg="http://www.w3.org/2000/svg">
  <defs
     id="defs2408" />
  <sodipodi:namedview
     id="namedview2406"
     pagecolor="#ffffff"
     bordercolor="#000000"
     borderopacity="0.25"
     inkscape:showpageshadow="2"
     inkscape:pageopacity="0.0"
     inkscape:pagecheckerboard="0"
     inkscape:deskcolor="#d1d1d1"
     showgrid="false"
     inkscape:zoom="35.3125"
     inkscape:cx="7.6318584"
     inkscape:cy="9.1752212"
     inkscape:window-width="1366"
     inkscape:window-height="745"
     inkscape:window-x="-8"
     inkscape:window-y="-8"
     inkscape:window-maximized="1"
     inkscape:current-layer="svg2404" />
  <path
     d="M 1.9223292,8 A 6.0776709,6.0776709 0 1 1 14.077671,8 6.0776709,6.0776709 0 0 1 1.9223292,8 Z M 7.6201456,2.7405357 C 7.1111407,2.8955163 6.6059343,3.3634969 6.186575,4.1497956 A 6.0548795,6.0548795 0 0 0 5.8310312,4.9611646 H 7.6201456 Z M 5.0295384,4.9611646 A 7.0402219,7.0402219 0 0 1 5.5157521,3.7919727 5.0900493,5.0900493 0 0 1 5.9692983,3.0831643 5.3369546,5.3369546 0 0 0 3.6354727,4.9611646 Z M 4.5873879,7.6201456 C 4.6101791,6.9538809 4.6922277,6.3149658 4.824417,5.7208735 H 3.1940818 A 5.2860542,5.2860542 0 0 0 2.6957128,7.6201456 Z M 5.604638,5.7208735 A 9.4963606,9.4963606 0 0 0 5.3478564,7.6201456 H 7.6201456 V 5.7208735 Z m 2.7752164,0 V 7.6201456 H 10.651384 A 9.492562,9.492562 0 0 0 10.395362,5.7208735 Z M 5.3486161,8.3798544 A 9.4963606,9.4963606 0 0 0 5.604638,10.279127 H 7.6201456 V 8.3798544 Z m 3.0312383,0 V 10.279127 H 10.395362 C 10.537428,9.6979493 10.627833,9.0575147 10.652144,8.3798544 Z M 5.8310312,11.038835 c 0.1048399,0.293248 0.2241142,0.565224 0.3555438,0.811369 0.4193593,0.786299 0.9253254,1.25352 1.4335706,1.40926 v -2.220629 z m 0.1382671,1.878001 A 5.0870104,5.0870104 0 0 1 5.5157521,12.208027 7.0409816,7.0409816 0 0 1 5.0295384,11.038835 H 3.6354727 a 5.3361949,5.3361949 0 0 0 2.3338256,1.878001 z M 4.824417,10.279127 A 10.371545,10.371545 0 0 1 4.5873879,8.3798544 H 2.6957128 c 0.047102,0.6761409 0.2210753,1.3165755 0.498369,1.8992726 z m 5.206285,2.637709 a 5.3361949,5.3361949 0 0 0 2.333825,-1.878001 h -1.394065 a 7.042501,7.042501 0 0 1 -0.486214,1.169192 5.0809328,5.0809328 0 0 1 -0.453546,0.708809 z M 8.3798544,11.038835 v 2.220629 c 0.5090049,-0.15498 1.0142113,-0.622961 1.4335706,-1.40926 0.1314296,-0.246145 0.250704,-0.518121 0.355544,-0.811369 z m 2.7957286,-0.759708 h 1.630335 C 13.083212,9.6964299 13.257185,9.0559953 13.304287,8.3798544 H 11.412612 A 10.370026,10.370026 0 0 1 11.175583,10.279127 Z M 13.304287,7.6201456 A 5.2868139,5.2868139 0 0 0 12.805918,5.7208735 h -1.630335 c 0.132189,0.5940923 0.214238,1.2330074 0.237029,1.8992721 z M 10.484248,3.7919727 c 0.187648,0.3525049 0.350985,0.7445147 0.486214,1.1691919 h 1.394065 A 5.3361949,5.3361949 0 0 0 10.030702,3.0831643 c 0.165616,0.2157574 0.317558,0.4543059 0.453546,0.7088084 z M 10.168969,4.9611646 A 6.0518407,6.0518407 0 0 0 9.813425,4.1497956 C 9.3940657,3.3634969 8.8888593,2.896276 8.3798544,2.7405357 v 2.2206289 z"
     id="path2402"
     style="fill:#c3e3bd;fill-opacity:1;stroke-width:0.759709" />
  <path
     style="fill:#ac4949;fill-opacity:1;stroke:#ffa8a8;stroke-width:0.813;stroke-linecap:round;stroke-linejoin:round;stroke-opacity:1;stroke-dasharray:none"
     d="M 2.1238938,13.564602 13.876106,2.0955752"
     id="path2948" />
</svg>
