<?xml version="1.0" encoding="UTF-8" standalone="no"?>
<!-- Created with Inkscape (http://www.inkscape.org/) -->

<svg
   width="210mm"
   height="297mm"
   viewBox="0 0 210 297"
   version="1.1"
   id="svg5"
   inkscape:version="1.2.2 (732a01da63, 2022-12-09)"
   sodipodi:docname="AdminBack.svg"
   xmlns:inkscape="http://www.inkscape.org/namespaces/inkscape"
   xmlns:sodipodi="http://sodipodi.sourceforge.net/DTD/sodipodi-0.dtd"
   xmlns="http://www.w3.org/2000/svg"
   xmlns:svg="http://www.w3.org/2000/svg">
  <sodipodi:namedview
     id="namedview7"
     pagecolor="#ffffff"
     bordercolor="#000000"
     borderopacity="0.25"
     inkscape:showpageshadow="2"
     inkscape:pageopacity="0.0"
     inkscape:pagecheckerboard="0"
     inkscape:deskcolor="#d1d1d1"
     inkscape:document-units="mm"
     showgrid="false"
     inkscape:zoom="0.50333193"
     inkscape:cx="680.46547"
     inkscape:cy="679.47209"
     inkscape:window-width="1366"
     inkscape:window-height="745"
     inkscape:window-x="-8"
     inkscape:window-y="-8"
     inkscape:window-maximized="1"
     inkscape:current-layer="layer1" />
  <defs
     id="defs2" />
  <g
     inkscape:label="Capa 1"
     inkscape:groupmode="layer"
     id="layer1">
    <rect
       style="fill:#171717;stroke:#4a4a4a;stroke-width:0.15875;stroke-linecap:round;stroke-linejoin:round;fill-opacity:1"
       id="rect234"
       width="210"
       height="297"
       x="0"
       y="0"
       ry="0" />
    <path
       style="fill:#171717;fill-opacity:1;stroke:#cdcdcd;stroke-width:0.15875;stroke-linecap:round;stroke-linejoin:round;stroke-opacity:1"
       d="M 210,148.5 H 0"
       id="path898" />
    <path
       style="fill:#1c1c1c;fill-opacity:1;stroke:none;stroke-width:0.15875;stroke-linecap:round;stroke-linejoin:round;stroke-opacity:1"
       d="M 105,148.5 47.111946,90.611946 62.816813,74.907078 136.40973,148.5 Z"
       id="path1710" />
    <path
       style="fill:#292929;fill-opacity:1;stroke:none;stroke-width:0.15875;stroke-linecap:round;stroke-linejoin:round;stroke-opacity:1"
       d="M 120.70486,148.5 79.933405,107.72854 96.590706,91.071238 154.01947,148.5 Z"
       id="path2036" />
    <path
       style="fill:#111111;fill-opacity:1;stroke:none;stroke-width:0.15875;stroke-linecap:round;stroke-linejoin:round;stroke-opacity:1"
       d="M 95.407963,148.5 33.379645,86.47168 19.318141,100.53319 67.284954,148.5 Z"
       id="path2416" />
    <path
       style="fill:#292929;fill-opacity:1;stroke:none;stroke-width:0.15875;stroke-linecap:round;stroke-linejoin:round;stroke-opacity:1"
       d="M 110.76671,148.5 65.230567,102.96385 52.502678,115.69174 85.310934,148.5 Z"
       id="path2580" />
    <path
       style="fill:#1b1b1b;fill-opacity:1;stroke:none;stroke-width:0.15875;stroke-linecap:round;stroke-linejoin:round;stroke-opacity:1"
       d="M 189.7646,148.42062 74.946766,33.602789 61.765486,46.784069 163.48141,148.5 Z"
       id="path2852" />
    <path
       style="fill:#3e3e3e;fill-opacity:1;stroke:none;stroke-width:0.15875;stroke-linecap:round;stroke-linejoin:round;stroke-opacity:1"
       d="M 170.57787,148.5 101.19026,79.112389 89.362832,90.939823 146.92301,148.5 Z"
       id="path3070" />
    <path
       style="fill:#3e3e3e;fill-opacity:1;stroke:none;stroke-width:0.15875;stroke-linecap:round;stroke-linejoin:round;stroke-opacity:1"
       d="M 28.435077,148.5 0,120.06492 -0.079375,105.37706 43.043567,148.5 Z"
       id="path4848" />
    <path
       style="fill:#202020;fill-opacity:1;stroke:none;stroke-width:0.15875;stroke-linecap:round;stroke-linejoin:round;stroke-opacity:1"
       d="M 9.1066592,121.17432 17.284067,112.99692 52.787152,148.5 H 35.739321 Z"
       id="path4850" />
    <path
       style="fill:#3c3c3c;fill-opacity:1;stroke:none;stroke-width:0.15875;stroke-linecap:round;stroke-linejoin:round;stroke-opacity:1"
       d="M 49.064449,148.5 28.43223,127.86778 34.84691,121.4531 61.893812,148.5 Z"
       id="path5956" />
    <path
       style="fill:#101010;fill-opacity:1;stroke:none;stroke-width:0.15875;stroke-linecap:round;stroke-linejoin:round;stroke-opacity:1"
       d="M 72.295723,148.5 48.596975,124.80125 43.674794,130.28098 61.893812,148.5 Z"
       id="path6120" />
    <path
       style="fill:#101010;fill-opacity:1;stroke:none;stroke-width:0.15875;stroke-linecap:round;stroke-linejoin:round;stroke-opacity:1"
       d="M 5.1252212,148.5 0,143.37478 -0.079375,128.78761 19.633014,148.5 Z"
       id="path6230" />
    <path
       style="fill:#101010;fill-opacity:1;stroke:none;stroke-width:0.15875;stroke-linecap:round;stroke-linejoin:round;stroke-opacity:1"
       d="M 158.75044,148.5 82.134952,71.884513 70.964601,83.054866 136.40973,148.5 Z"
       id="path6232" />
    <path
       style="fill:#2c2c2c;fill-opacity:1;stroke:none;stroke-width:0.15875;stroke-linecap:round;stroke-linejoin:round;stroke-opacity:1"
       d="M 181.76148,148.5 141.89377,108.63228 152.583,97.94305 203.13995,148.5 Z"
       id="path6960" />
    <path
       style="fill:#3a3a3a;fill-opacity:1;stroke:none;stroke-width:0.15875;stroke-linecap:round;stroke-linejoin:round;stroke-opacity:1"
       d="M 192.45071,148.5 H 210 L 123.86094,62.360944 113.78293,72.438955 189.84398,148.5 Z"
       id="path6962" />
    <path
       style="fill:#1e1e1e;fill-opacity:1;stroke:none;stroke-width:0.15875;stroke-linecap:round;stroke-linejoin:round;stroke-opacity:1"
       d="M 210.07937,128.78761 161.89146,82.266371 152.82891,91.328919 210,148.5 Z"
       id="path7852" />
    <path
       style="fill:#2c2c2c;fill-opacity:1;stroke:none;stroke-width:0.15875;stroke-linecap:round;stroke-linejoin:round;stroke-opacity:1"
       d="M 210.03968,138.6438 155.87781,84.481926 164.13849,76.221237 210,122.08274 Z"
       id="path7908" />
    <path
       style="fill:#343434;fill-opacity:1;stroke:none;stroke-width:0.15875;stroke-linecap:round;stroke-linejoin:round;stroke-opacity:1"
       d="m 177.69207,97.520492 32.32777,32.842778 -0.0198,-15.9 -24.9677,-24.967697 z"
       id="path7910" />
    <path
       style="fill:#1c1c1c;fill-opacity:1;stroke:none;stroke-width:0.158421;stroke-linecap:round;stroke-linejoin:round;stroke-opacity:1"
       d="m 105,148.65859 -57.768165,57.76816 15.67234,15.67234 73.440495,-73.4405 z"
       id="path9497" />
    <path
       style="fill:#292929;fill-opacity:1;stroke:none;stroke-width:0.158421;stroke-linecap:round;stroke-linejoin:round;stroke-opacity:1"
       d="m 120.67233,148.65859 -40.687015,40.68701 16.6228,16.62281 57.309825,-57.30982 z"
       id="path9499" />
    <path
       style="fill:#111111;fill-opacity:1;stroke:none;stroke-width:0.158421;stroke-linecap:round;stroke-linejoin:round;stroke-opacity:1"
       d="m 95.427825,148.65859 -61.89985,61.89985 -14.03238,-14.03239 47.86747,-47.86746 z"
       id="path9501" />
    <path
       style="fill:#292929;fill-opacity:1;stroke:none;stroke-width:0.158421;stroke-linecap:round;stroke-linejoin:round;stroke-opacity:1"
       d="m 110.75476,148.65859 -45.441835,45.44184 -12.70152,-12.70153 32.7403,-32.74031 z"
       id="path9503" />
    <path
       style="fill:#1b1b1b;fill-opacity:1;stroke:none;stroke-width:0.158421;stroke-linecap:round;stroke-linejoin:round;stroke-opacity:1"
       d="M 189.58904,148.7378 75.009005,263.31783 61.855025,250.16385 163.36028,148.65859 Z"
       id="path9505" />
    <path
       style="fill:#3e3e3e;fill-opacity:1;stroke:none;stroke-width:0.158421;stroke-linecap:round;stroke-linejoin:round;stroke-opacity:1"
       d="m 170.44205,148.65859 -69.2439,69.2439 -11.802935,-11.80294 57.440965,-57.44096 z"
       id="path9507" />
    <path
       style="fill:#3e3e3e;fill-opacity:1;stroke:none;stroke-width:0.158421;stroke-linecap:round;stroke-linejoin:round;stroke-opacity:1"
       d="m 28.593645,148.65859 -28.37617974,28.37618 -0.0792,14.65744 43.03362974,-43.03362 z"
       id="path9509" />
    <path
       style="fill:#202020;fill-opacity:1;stroke:none;stroke-width:0.158421;stroke-linecap:round;stroke-linejoin:round;stroke-opacity:1"
       d="m 9.3052553,175.92767 8.1604797,8.16047 35.42955,-35.42955 h -17.01252 z"
       id="path9511" />
    <path
       style="fill:#3c3c3c;fill-opacity:1;stroke:none;stroke-width:0.158421;stroke-linecap:round;stroke-linejoin:round;stroke-opacity:1"
       d="m 49.180295,148.65859 -20.58949,20.58948 6.40139,6.4014 26.99089,-26.99088 z"
       id="path9513" />
    <path
       style="fill:#101010;fill-opacity:1;stroke:none;stroke-width:0.158421;stroke-linecap:round;stroke-linejoin:round;stroke-opacity:1"
       d="m 72.363455,148.65859 -23.64967,23.64966 -4.91199,-5.46838 18.18129,-18.18128 z"
       id="path9515" />
    <path
       style="fill:#101010;fill-opacity:1;stroke:none;stroke-width:0.158421;stroke-linecap:round;stroke-linejoin:round;stroke-opacity:1"
       d="m 5.3320653,148.65859 -5.11460004,5.1146 -0.0792,14.55696 19.67156974,-19.67156 z"
       id="path9517" />
    <path
       style="fill:#101010;fill-opacity:1;stroke:none;stroke-width:0.158421;stroke-linecap:round;stroke-linejoin:round;stroke-opacity:1"
       d="m 158.63911,148.65859 -76.456805,76.4568 -11.14722,-11.14721 65.309585,-65.30959 z"
       id="path9519" />
    <path
       style="fill:#2c2c2c;fill-opacity:1;stroke:none;stroke-width:0.158421;stroke-linecap:round;stroke-linejoin:round;stroke-opacity:1"
       d="m 181.60249,148.65859 -39.78514,39.78515 10.6671,10.66709 50.45224,-50.45224 z"
       id="path9521" />
    <path
       style="fill:#3a3a3a;fill-opacity:1;stroke:none;stroke-width:0.158421;stroke-linecap:round;stroke-linejoin:round;stroke-opacity:1"
       d="m 192.26959,148.65859 h 17.51294 l -85.96066,85.96065 -10.05713,-10.05714 75.90352,-75.90351 z"
       id="path9523" />
    <path
       style="fill:#1e1e1e;fill-opacity:1;stroke:none;stroke-width:0.158421;stroke-linecap:round;stroke-linejoin:round;stroke-opacity:1"
       d="m 209.86174,168.33015 -48.08811,46.42489 -9.04378,-9.04378 57.05268,-57.05267 z"
       id="path9525" />
    <path
       style="fill:#2c2c2c;fill-opacity:1;stroke:none;stroke-width:0.158421;stroke-linecap:round;stroke-linejoin:round;stroke-opacity:1"
       d="m 209.82213,158.49437 -54.0497,54.0497 8.24357,8.24358 45.76653,-45.76652 z"
       id="path9527" />
    <path
       style="fill:#343434;fill-opacity:1;stroke:none;stroke-width:0.158421;stroke-linecap:round;stroke-linejoin:round;stroke-opacity:1"
       d="m 177.54151,199.53251 32.26082,-32.77476 -0.0198,15.86707 -24.91599,24.91599 z"
       id="path9529" />
  </g>
</svg>
