<?xml version="1.0" encoding="UTF-8" standalone="no"?>
<svg
   width="16"
   height="16"
   fill="currentColor"
   class="bi bi-bookmark-plus"
   viewBox="0 0 16 16"
   version="1.1"
   id="svg6"
   sodipodi:docname="bookmark-plus.svg"
   inkscape:version="1.2.2 (732a01da63, 2022-12-09)"
   xmlns:inkscape="http://www.inkscape.org/namespaces/inkscape"
   xmlns:sodipodi="http://sodipodi.sourceforge.net/DTD/sodipodi-0.dtd"
   xmlns="http://www.w3.org/2000/svg"
   xmlns:svg="http://www.w3.org/2000/svg">
  <defs
     id="defs10" />
  <sodipodi:namedview
     id="namedview8"
     pagecolor="#ffffff"
     bordercolor="#000000"
     borderopacity="0.25"
     inkscape:showpageshadow="2"
     inkscape:pageopacity="0.0"
     inkscape:pagecheckerboard="0"
     inkscape:deskcolor="#d1d1d1"
     showgrid="false"
     inkscape:zoom="35.3125"
     inkscape:cx="7.4053097"
     inkscape:cy="8.0141593"
     inkscape:window-width="1366"
     inkscape:window-height="745"
     inkscape:window-x="-8"
     inkscape:window-y="-8"
     inkscape:window-maximized="1"
     inkscape:current-layer="svg6" />
  <path
     style="fill:#a2a2a2;fill-opacity:1;stroke-width:0.813;stroke-linecap:round;stroke-linejoin:round"
     d="M 3,7.7735023 13,2 V 6.0034053 L 3,11.776908 Z"
     id="path901" />
  <path
     d="M2 2a2 2 0 0 1 2-2h8a2 2 0 0 1 2 2v13.5a.5.5 0 0 1-.777.416L8 13.101l-5.223 2.815A.5.5 0 0 1 2 15.5V2zm2-1a1 1 0 0 0-1 1v12.566l4.723-2.482a.5.5 0 0 1 .554 0L13 14.566V2a1 1 0 0 0-1-1H4z"
     id="path2"
     style="fill:#c9c9c9;fill-opacity:1" />
  <path
     d="M8 4a.5.5 0 0 1 .5.5V6H10a.5.5 0 0 1 0 1H8.5v1.5a.5.5 0 0 1-1 0V7H6a.5.5 0 0 1 0-1h1.5V4.5A.5.5 0 0 1 8 4z"
     id="path4"
     style="fill:#cccccc;fill-opacity:1" />
</svg>
