<?xml version="1.0" encoding="UTF-8" standalone="no"?>
<svg
   width="16"
   height="16"
   fill="currentColor"
   class="bi bi-bookmark-plus-fill"
   viewBox="0 0 16 16"
   version="1.1"
   id="svg4"
   sodipodi:docname="bookmark-plus-fill.svg"
   inkscape:version="1.2.2 (732a01da63, 2022-12-09)"
   xmlns:inkscape="http://www.inkscape.org/namespaces/inkscape"
   xmlns:sodipodi="http://sodipodi.sourceforge.net/DTD/sodipodi-0.dtd"
   xmlns="http://www.w3.org/2000/svg"
   xmlns:svg="http://www.w3.org/2000/svg">
  <defs
     id="defs8" />
  <sodipodi:namedview
     id="namedview6"
     pagecolor="#ffffff"
     bordercolor="#000000"
     borderopacity="0.25"
     inkscape:showpageshadow="2"
     inkscape:pageopacity="0.0"
     inkscape:pagecheckerboard="0"
     inkscape:deskcolor="#d1d1d1"
     showgrid="false"
     inkscape:zoom="35.3125"
     inkscape:cx="7.4053097"
     inkscape:cy="8.0141593"
     inkscape:window-width="1366"
     inkscape:window-height="745"
     inkscape:window-x="-8"
     inkscape:window-y="-8"
     inkscape:window-maximized="1"
     inkscape:current-layer="svg4" />
  <path
     fill-rule="evenodd"
     d="M2 15.5V2a2 2 0 0 1 2-2h8a2 2 0 0 1 2 2v13.5a.5.5 0 0 1-.74.439L8 13.069l-5.26 2.87A.5.5 0 0 1 2 15.5zm6.5-11a.5.5 0 0 0-1 0V6H6a.5.5 0 0 0 0 1h1.5v1.5a.5.5 0 0 0 1 0V7H10a.5.5 0 0 0 0-1H8.5V4.5z"
     id="path2"
     style="fill:#c9c9c9;fill-opacity:1" />
</svg>
