<?xml version="1.0" encoding="UTF-8" standalone="no"?>
<svg
   width="16"
   height="16"
   fill="currentColor"
   class="bi bi-code-square"
   viewBox="0 0 16 16"
   version="1.1"
   id="svg6"
   sodipodi:docname="code-square.svg"
   inkscape:version="1.2.2 (732a01da63, 2022-12-09)"
   xmlns:inkscape="http://www.inkscape.org/namespaces/inkscape"
   xmlns:sodipodi="http://sodipodi.sourceforge.net/DTD/sodipodi-0.dtd"
   xmlns="http://www.w3.org/2000/svg"
   xmlns:svg="http://www.w3.org/2000/svg">
  <defs
     id="defs10" />
  <sodipodi:namedview
     id="namedview8"
     pagecolor="#ffffff"
     bordercolor="#666666"
     borderopacity="1.0"
     inkscape:showpageshadow="2"
     inkscape:pageopacity="0.0"
     inkscape:pagecheckerboard="0"
     inkscape:deskcolor="#d1d1d1"
     showgrid="false"
     showguides="false"
     inkscape:zoom="256"
     inkscape:cx="1.7382812"
     inkscape:cy="14.429688"
     inkscape:window-width="1920"
     inkscape:window-height="1017"
     inkscape:window-x="-8"
     inkscape:window-y="-8"
     inkscape:window-maximized="1"
     inkscape:current-layer="svg6" />
  <path
     d="M14 1a1 1 0 0 1 1 1v12a1 1 0 0 1-1 1H2a1 1 0 0 1-1-1V2a1 1 0 0 1 1-1h12zM2 0a2 2 0 0 0-2 2v12a2 2 0 0 0 2 2h12a2 2 0 0 0 2-2V2a2 2 0 0 0-2-2H2z"
     id="path2"
     style="fill:#d4d4d4;fill-opacity:1" />
  <path
     d="M6.854 4.646a.5.5 0 0 1 0 .708L4.207 8l2.647 2.646a.5.5 0 0 1-.708.708l-3-3a.5.5 0 0 1 0-.708l3-3a.5.5 0 0 1 .708 0zm2.292 0a.5.5 0 0 0 0 .708L11.793 8l-2.647 2.646a.5.5 0 0 0 .708.708l3-3a.5.5 0 0 0 0-.708l-3-3a.5.5 0 0 0-.708 0z"
     id="path4"
     style="fill:#cccccc;fill-opacity:1" />
  <path
     style="fill:#9c9c9c;fill-opacity:1;stroke:none;stroke-width:1px;stroke-linecap:butt;stroke-linejoin:miter;stroke-opacity:1"
     d="M 1.0065464,14.114236 1,2 C 1,2 1.0008938,1.0250896 2,1 2.9991062,0.97491039 14,1 14,1 L 14.822876,0.17712434 C 14.822876,0.17712434 14.561529,0 14,0 H 2 C 2,0 0,0.11947431 0,2 v 12 c 0,0 0,0.576535 0.22393895,0.919569 z"
     id="path910"
     sodipodi:nodetypes="ccsccscsccc" />
  <path
     style="fill:#9c9c9c;fill-opacity:1;stroke:none;stroke-width:1px;stroke-linecap:butt;stroke-linejoin:miter;stroke-opacity:1"
     d="M 10.112156,4.8878445 9.854,4.646 c 0,0 -0.3820014,-0.3494677 -0.708,0 -0.3347764,0.3588775 0,0.708 0,0.708 l 0.2587294,0.2586316 z"
     id="path1010"
     sodipodi:nodetypes="ccsccc" />
  <path
     style="fill:#9c9c9c;stroke:none;stroke-width:1px;stroke-linecap:butt;stroke-linejoin:miter;stroke-opacity:1;fill-opacity:1"
     d="M 5.6074219,9.3925781 4.207,8 6.854,5.354 c 0,0 0.3266562,-0.3705938 0,-0.708 -0.3266563,-0.3374063 -0.708,0 -0.708,0 l -3,3 c 0,0 -0.1468938,0.1428003 -0.1468938,0.3538689 C 2.9991062,8.2109375 3.146,8.354 3.146,8.354 l 1.7524375,1.747563 z"
     id="path1012" />
  <path
     style="fill:#656565;stroke:none;stroke-width:1px;stroke-linecap:butt;stroke-linejoin:miter;stroke-opacity:1;fill-opacity:1"
     d="M 14.822876,0.17712434 14,1 c 0,0 0.08346,2.184e-4 0.13979,0.00982 0.05633,0.0096 0.05633,0.0096 0.05633,0.0096 L 14.9665,0.24903529 Z"
     id="path1014" />
  <path
     style="fill:#656565;fill-opacity:1;stroke:none;stroke-width:1px;stroke-linecap:butt;stroke-linejoin:miter;stroke-opacity:1"
     d="m 1.0065464,14.114236 -0.78260745,0.805333 0.0970674,0.16716 0.73187917,-0.765833 c 0,0 -0.046339,-0.08947 -0.046339,-0.20666 z"
     id="path1018"
     sodipodi:nodetypes="ccccc" />
  <path
     style="fill:#737373;stroke:none;stroke-width:1px;stroke-linecap:butt;stroke-linejoin:miter;stroke-opacity:1;fill-opacity:1"
     d="m 9.4047294,5.6126316 0.7074266,-0.7247871 0.08364,0.099952 -0.7079355,0.7079354 z"
     id="path1020" />
  <path
     style="fill:#737373;stroke:none;stroke-width:1px;stroke-linecap:butt;stroke-linejoin:miter;stroke-opacity:1;fill-opacity:1"
     d="M 5.6074219,9.3925781 5.6994859,9.4919221 4.991704,10.199704 4.898438,10.101564 Z"
     id="path1022" />
</svg>
