<?xml version="1.0" encoding="UTF-8" standalone="no"?>
<svg
   width="16"
   height="16"
   fill="currentColor"
   class="bi bi-eye"
   viewBox="0 0 16 16"
   version="1.1"
   id="svg6"
   sodipodi:docname="eye.svg"
   inkscape:version="1.2.2 (732a01da63, 2022-12-09)"
   xmlns:inkscape="http://www.inkscape.org/namespaces/inkscape"
   xmlns:sodipodi="http://sodipodi.sourceforge.net/DTD/sodipodi-0.dtd"
   xmlns="http://www.w3.org/2000/svg"
   xmlns:svg="http://www.w3.org/2000/svg">
  <defs
     id="defs10" />
  <sodipodi:namedview
     id="namedview8"
     pagecolor="#ffffff"
     bordercolor="#000000"
     borderopacity="0.25"
     inkscape:showpageshadow="2"
     inkscape:pageopacity="0.0"
     inkscape:pagecheckerboard="0"
     inkscape:deskcolor="#d1d1d1"
     showgrid="false"
     inkscape:zoom="35.3125"
     inkscape:cx="8.0141593"
     inkscape:cy="8.0141593"
     inkscape:window-width="1366"
     inkscape:window-height="745"
     inkscape:window-x="-8"
     inkscape:window-y="-8"
     inkscape:window-maximized="1"
     inkscape:current-layer="svg6" />
  <path
     d="M 15.777032,8 C 15.777032,8 12.860645,2.6950878 8,2.6950878 3.1393547,2.6950878 0.22296759,8 0.22296759,8 0.22296759,8 3.1393547,13.304912 8,13.304912 12.860645,13.304912 15.777032,8 15.777032,8 Z M 1.363275,8 A 12.766971,12.667166 0 0 1 2.9770092,6.0294662 C 4.2281393,4.7861877 5.9390864,3.6596173 8,3.6596173 c 2.060914,0 3.770889,1.1265704 5.023963,2.3698489 A 12.766971,12.667166 0 0 1 14.637697,8 c -0.05638,0.083914 -0.1186,0.1765089 -0.189565,0.2777845 -0.325663,0.4629742 -0.806867,1.080273 -1.424169,1.6927493 C 11.770889,11.213812 10.059941,12.340383 8,12.340383 c -2.0609136,0 -3.7708886,-1.126571 -5.0239629,-2.3698492 A 12.767943,12.66813 0 0 1 1.3623028,8 Z"
     id="path2"
     style="stroke:#cdbca6;stroke-width:0.193664;stroke-dasharray:none;stroke-opacity:1" />
  <path
     d="M 8,5.5886763 A 2.4303228,2.4113238 0 1 0 8,10.411324 2.4303228,2.4113239 0 0 0 8,5.5886763 Z M 4.5975483,8 A 3.4024519,3.3758533 0 1 1 11.402452,8 3.4024519,3.3758533 0 0 1 4.5975483,8 Z"
     id="path4"
     style="stroke:#cdbca6;stroke-width:0.193664;stroke-dasharray:none;stroke-opacity:1" />
</svg>
