<?xml version="1.0" encoding="UTF-8" standalone="no"?>
<svg
   width="16"
   height="16"
   fill="currentColor"
   class="bi bi-house"
   viewBox="0 0 16 16"
   version="1.1"
   id="svg4"
   sodipodi:docname="house.svg"
   inkscape:version="1.2.2 (732a01da63, 2022-12-09)"
   xmlns:inkscape="http://www.inkscape.org/namespaces/inkscape"
   xmlns:sodipodi="http://sodipodi.sourceforge.net/DTD/sodipodi-0.dtd"
   xmlns="http://www.w3.org/2000/svg"
   xmlns:svg="http://www.w3.org/2000/svg">
  <defs
     id="defs8" />
  <sodipodi:namedview
     id="namedview6"
     pagecolor="#ffffff"
     bordercolor="#666666"
     borderopacity="1.0"
     inkscape:showpageshadow="2"
     inkscape:pageopacity="0.0"
     inkscape:pagecheckerboard="0"
     inkscape:deskcolor="#d1d1d1"
     showgrid="false"
     inkscape:zoom="45.254834"
     inkscape:cx="8.1096309"
     inkscape:cy="8.7504464"
     inkscape:window-width="1920"
     inkscape:window-height="1017"
     inkscape:window-x="-8"
     inkscape:window-y="-8"
     inkscape:window-maximized="1"
     inkscape:current-layer="svg4" />
  <path
     d="M8.707 1.5a1 1 0 0 0-1.414 0L.646 8.146a.5.5 0 0 0 .708.708L2 8.207V13.5A1.5 1.5 0 0 0 3.5 15h9a1.5 1.5 0 0 0 1.5-1.5V8.207l.646.647a.5.5 0 0 0 .708-.708L13 5.793V2.5a.5.5 0 0 0-.5-.5h-1a.5.5 0 0 0-.5.5v1.293L8.707 1.5ZM13 7.207V13.5a.5.5 0 0 1-.5.5h-9a.5.5 0 0 1-.5-.5V7.207l5-5 5 5Z"
     id="path2"
     style="stroke:none;stroke-opacity:1;fill:#aaaaaa;fill-opacity:1" />
  <path
     style="fill:#848484;stroke:none;stroke-width:1px;stroke-linecap:butt;stroke-linejoin:miter;stroke-opacity:1;fill-opacity:1"
     d="M 1.354,8.854 8,2.207 14.646,8.854 c 0,0 0.38198,0.3346148 0.713693,-0.00579 C 15.691406,8.5078125 15.354,8.146 15.354,8.146 L 8.707,1.5 C 8.707,1.5 8.484375,1.2072135 8,1.2072135 7.515625,1.2072135 7.293,1.5 7.293,1.5 L 0.646,8.146 c 0,0 -0.31485471,0.4212633 -0.005818,0.7020848 C 0.94921875,9.1289063 1.2564295,8.9517215 1.354,8.854"
     id="path908" />
  <path
     style="fill:#848484;fill-opacity:1;stroke:none;stroke-width:1.2573px;stroke-linecap:butt;stroke-linejoin:miter;stroke-opacity:1"
     d="M 6.4888948,12.36804 V 6.6186707 c 0,0 -0.00211,-0.086232 0.098227,-0.201365 C 6.6874593,6.3021733 6.783575,6.314168 6.783575,6.314168 h 1.6717679 c 0,0 0.8485062,0.1189031 0.8938632,1.2965932 0.04536,1.1776905 -0.8938632,1.2573025 -0.8938632,1.2573025 L 7.1764821,8.8484181 V 12.36804 c 0,0 -0.0034,0.193359 -0.3272208,0.19335 -0.3238197,-9e-6 -0.3603665,-0.19335 -0.3603665,-0.19335 z"
     id="path910"
     sodipodi:nodetypes="cczcczccczc" />
  <path
     style="fill:#b5b5b5;fill-opacity:1;stroke:none;stroke-width:1px;stroke-linecap:butt;stroke-linejoin:miter;stroke-opacity:1"
     d="M 7.1856996,8.34375 V 6.875 c 0,0 0.022002,-0.061065 0.054687,-0.09375 0.032685,-0.032685 0.089844,-0.039063 0.089844,-0.039063 h 0.8789065 c 0,0 0.5473531,0.1040129 0.5506483,0.8280291 C 8.7630807,8.2942327 8.2013246,8.34375 8.2013246,8.34375 Z"
     id="path1786"
     sodipodi:nodetypes="cczcczcc" />
</svg>
