<?xml version="1.0" encoding="UTF-8" standalone="no"?>
<!-- Created with Inkscape (http://www.inkscape.org/) -->

<svg
   width="210mm"
   height="297mm"
   viewBox="0 0 210 297"
   version="1.1"
   id="svg5"
   inkscape:version="1.2.2 (732a01da63, 2022-12-09)"
   sodipodi:docname="Incircle.svg"
   xmlns:inkscape="http://www.inkscape.org/namespaces/inkscape"
   xmlns:sodipodi="http://sodipodi.sourceforge.net/DTD/sodipodi-0.dtd"
   xmlns:xlink="http://www.w3.org/1999/xlink"
   xmlns="http://www.w3.org/2000/svg"
   xmlns:svg="http://www.w3.org/2000/svg">
  <sodipodi:namedview
     id="namedview7"
     pagecolor="#ffffff"
     bordercolor="#666666"
     borderopacity="1.0"
     inkscape:showpageshadow="2"
     inkscape:pageopacity="0.0"
     inkscape:pagecheckerboard="0"
     inkscape:deskcolor="#d1d1d1"
     inkscape:document-units="mm"
     showgrid="false"
     inkscape:zoom="0.37282196"
     inkscape:cx="382.21997"
     inkscape:cy="579.36501"
     inkscape:window-width="1366"
     inkscape:window-height="745"
     inkscape:window-x="-8"
     inkscape:window-y="-8"
     inkscape:window-maximized="1"
     inkscape:current-layer="layer1" />
  <defs
     id="defs2">
    <linearGradient
       inkscape:collect="always"
       id="linearGradient874">
      <stop
         style="stop-color:#0e0a0a;stop-opacity:1;"
         offset="0"
         id="stop870" />
      <stop
         style="stop-color:#1b1313;stop-opacity:1;"
         offset="1"
         id="stop872" />
    </linearGradient>
    <linearGradient
       inkscape:collect="always"
       xlink:href="#linearGradient874"
       id="linearGradient876"
       x1="67.179428"
       y1="53.605824"
       x2="183.40875"
       y2="276.24194"
       gradientUnits="userSpaceOnUse" />
  </defs>
  <g
     inkscape:label="Capa 1"
     inkscape:groupmode="layer"
     id="layer1">
    <rect
       style="fill:url(#linearGradient876);stroke:none;stroke-width:0.752999;stroke-linecap:round;stroke-linejoin:round;fill-opacity:1"
       id="rect237"
       width="210"
       height="297"
       x="0"
       y="0" />
    <path
       style="opacity:0.266667;fill:#570229;fill-opacity:1;stroke:none;stroke-width:0.909626px;stroke-linecap:butt;stroke-linejoin:miter;stroke-opacity:1"
       d="m -11.164643,17.508991 c 0,0 -16.815879,-21.2468471 -0.379849,-42.582854 -3.348948,-2.852789 -18.821743,-11.443396 -18.821743,-11.443396 0,0 -24.676238,30.572986 3.59419,65.929985 3.317904,-2.175748 16.091803,-11.289272 16.091803,-11.289272 z"
       id="path965"
       sodipodi:nodetypes="cccccc" />
    <path
       style="opacity:0.266667;fill:#570229;fill-opacity:1;stroke:none;stroke-width:0.909626px;stroke-linecap:butt;stroke-linejoin:miter;stroke-opacity:1"
       d="m 22.736929,-41.267913 c 0,0 21.755318,0.949333 30.654402,26.876909 4.385301,-0.350839 20.215088,-5.575082 20.215088,-5.575082 0,0 -8.147833,-39.895005 -49.55242,-43.050471 -0.80763,3.884601 -3.472772,21.579553 -3.472772,21.579553 z"
       id="path1797"
       sodipodi:nodetypes="cccccc" />
    <path
       style="opacity:0.266667;fill:#570229;fill-opacity:1;stroke:none;stroke-width:0.909626px;stroke-linecap:butt;stroke-linejoin:miter;stroke-opacity:1"
       d="m 10.835556,31.654929 c 0,0 24.680121,6.546965 38.599417,-17.168571 4.02958,1.765342 17.744452,12.342459 17.744452,12.342459 0,0 -19.215977,36.068427 -60.9044857,24.483242 0.5068308,-3.935162 3.4076635,-19.812258 3.4076635,-19.812258 z"
       id="path1799"
       sodipodi:nodetypes="cccccc" />
    <path
       style="opacity:0.266667;fill:#570229;fill-opacity:1;stroke:none;stroke-width:0.503365px;stroke-linecap:butt;stroke-linejoin:miter;stroke-opacity:1"
       d="m 20.027786,17.501642 c 0,0 -14.9109345,1.579833 -20.027786,-12.4181893 -2.324816,0.7224185 -10.919322,5.4177743 -10.919322,5.4177743 0,0 6.9994511,20.584117 31.897727,17.820863 -0.03619,-2.195317 -0.519957,-10.865247 -0.519957,-10.865247 z"
       id="path4975"
       sodipodi:nodetypes="cccccc" />
    <path
       style="opacity:0.266667;fill:#570229;fill-opacity:1;stroke:none;stroke-width:0.503365px;stroke-linecap:butt;stroke-linejoin:miter;stroke-opacity:1"
       d="m 2.5665604,-15.739644 c 0,0 6.8791251,-9.893862 21.6374226,-6.386579 1.133065,-2.154718 3.372141,-11.103414 3.372141,-11.103414 0,0 -21.0684576,-7.990144 -34.7915297,10.440856 1.5778817,1.526765 9.0652368,8.007316 9.0652368,8.007316 z"
       id="path4977"
       sodipodi:nodetypes="cccccc" />
    <path
       style="opacity:0.266667;fill:#570229;fill-opacity:1;stroke:none;stroke-width:0.503365px;stroke-linecap:butt;stroke-linejoin:miter;stroke-opacity:1"
       d="m 33.151226,11.396752 c 0,0 10.362208,-9.6059997 3.388037,-23.130832 2.017557,-1.362406 11.021149,-4.647994 11.021149,-4.647994 0,0 11.184712,19.6559547 -6.564819,35.726266 -1.690504,-1.401051 -8.25796,-7.454106 -8.25796,-7.454106 z"
       id="path4979"
       sodipodi:nodetypes="cccccc" />
  </g>
</svg>
