<?xml version="1.0" encoding="UTF-8" standalone="no"?>
<!-- Created with Inkscape (http://www.inkscape.org/) -->

<svg
   width="210mm"
   height="297mm"
   viewBox="0 0 210 297"
   version="1.1"
   id="svg5"
   inkscape:version="1.2.2 (732a01da63, 2022-12-09)"
   sodipodi:docname="Incircle.svg"
   xmlns:inkscape="http://www.inkscape.org/namespaces/inkscape"
   xmlns:sodipodi="http://sodipodi.sourceforge.net/DTD/sodipodi-0.dtd"
   xmlns:xlink="http://www.w3.org/1999/xlink"
   xmlns="http://www.w3.org/2000/svg"
   xmlns:svg="http://www.w3.org/2000/svg">
  <sodipodi:namedview
     id="namedview7"
     pagecolor="#ffffff"
     bordercolor="#666666"
     borderopacity="1.0"
     inkscape:showpageshadow="2"
     inkscape:pageopacity="0.0"
     inkscape:pagecheckerboard="0"
     inkscape:deskcolor="#d1d1d1"
     inkscape:document-units="mm"
     showgrid="false"
     inkscape:zoom="0.37282196"
     inkscape:cx="586.07063"
     inkscape:cy="582.04726"
     inkscape:window-width="1366"
     inkscape:window-height="745"
     inkscape:window-x="-8"
     inkscape:window-y="-8"
     inkscape:window-maximized="1"
     inkscape:current-layer="layer1" />
  <defs
     id="defs2">
    <linearGradient
       inkscape:collect="always"
       id="linearGradient874">
      <stop
         style="stop-color:#0e0a0a;stop-opacity:0.88475835;"
         offset="0"
         id="stop870" />
      <stop
         style="stop-color:#1b1313;stop-opacity:1;"
         offset="1"
         id="stop872" />
    </linearGradient>
    <linearGradient
       inkscape:collect="always"
       xlink:href="#linearGradient874"
       id="linearGradient876"
       x1="67.179428"
       y1="53.605824"
       x2="183.40875"
       y2="276.24194"
       gradientUnits="userSpaceOnUse" />
    <filter
       inkscape:collect="always"
       style="color-interpolation-filters:sRGB"
       id="filter906"
       x="-0.43276224"
       y="-0.43276224"
       width="1.8655245"
       height="1.8655245">
      <feGaussianBlur
         inkscape:collect="always"
         stdDeviation="24.069494"
         id="feGaussianBlur908" />
    </filter>
  </defs>
  <g
     inkscape:label="Capa 1"
     inkscape:groupmode="layer"
     id="layer1">
    <rect
       style="fill:url(#linearGradient876);stroke:none;stroke-width:0.752999;stroke-linecap:round;stroke-linejoin:round;fill-opacity:1"
       id="rect237"
       width="210"
       height="297"
       x="0"
       y="0" />
    <circle
       style="fill:#ed99d9;stroke-width:0.701;stroke-linecap:round;stroke-linejoin:round;fill-opacity:1;filter:url(#filter906);opacity:0.36507937"
       id="path350"
       cx="105"
       cy="143.46667"
       r="66.741943" />
    <path
       style="opacity:0.266667;fill:#570229;fill-opacity:1;stroke:none;stroke-width:0.909626px;stroke-linecap:butt;stroke-linejoin:miter;stroke-opacity:1"
       d="m 74.706327,164.52793 c 0,0 -16.815879,-21.24685 -0.379849,-42.58285 -3.348948,-2.85279 -18.821743,-11.4434 -18.821743,-11.4434 0,0 -24.676238,30.57299 3.59419,65.92999 3.317904,-2.17575 16.091803,-11.28927 16.091803,-11.28927 z"
       id="path965"
       sodipodi:nodetypes="cccccc" />
    <path
       style="opacity:0.266667;fill:#570229;fill-opacity:1;stroke:none;stroke-width:0.909626px;stroke-linecap:butt;stroke-linejoin:miter;stroke-opacity:1"
       d="m 108.6079,105.75103 c 0,0 21.75532,0.94933 30.6544,26.87691 4.3853,-0.35084 20.21509,-5.57508 20.21509,-5.57508 0,0 -8.14783,-39.89501 -49.55242,-43.050476 -0.80763,3.884601 -3.47277,21.579556 -3.47277,21.579556 z"
       id="path1797"
       sodipodi:nodetypes="cccccc" />
    <path
       style="opacity:0.266667;fill:#570229;fill-opacity:1;stroke:none;stroke-width:0.909626px;stroke-linecap:butt;stroke-linejoin:miter;stroke-opacity:1"
       d="m 96.706526,178.67387 c 0,0 24.680124,6.54697 38.599414,-17.16857 4.02958,1.76534 17.74445,12.34246 17.74445,12.34246 0,0 -19.21597,36.06843 -60.904481,24.48324 0.506831,-3.93516 3.407664,-19.81226 3.407664,-19.81226 z"
       id="path1799"
       sodipodi:nodetypes="cccccc" />
    <path
       style="opacity:0.266667;fill:#570229;fill-opacity:1;stroke:none;stroke-width:0.503365px;stroke-linecap:butt;stroke-linejoin:miter;stroke-opacity:1"
       d="m 105.89876,164.52058 c 0,0 -14.910939,1.57984 -20.02779,-12.41819 -2.324816,0.72242 -10.919322,5.41778 -10.919322,5.41778 0,0 6.999451,20.58411 31.897722,17.82086 -0.0362,-2.19532 -0.51995,-10.86525 -0.51995,-10.86525 z"
       id="path4975"
       sodipodi:nodetypes="cccccc" />
    <path
       style="opacity:0.266667;fill:#570229;fill-opacity:1;stroke:none;stroke-width:0.503365px;stroke-linecap:butt;stroke-linejoin:miter;stroke-opacity:1"
       d="m 88.43753,131.2793 c 0,0 6.879125,-9.89386 21.63742,-6.38658 1.13307,-2.15472 3.37214,-11.10342 3.37214,-11.10342 0,0 -21.068454,-7.99014 -34.791526,10.44086 1.577882,1.52677 9.065237,8.00732 9.065237,8.00732 z"
       id="path4977"
       sodipodi:nodetypes="cccccc" />
    <path
       style="opacity:0.266667;fill:#570229;fill-opacity:1;stroke:none;stroke-width:0.503365px;stroke-linecap:butt;stroke-linejoin:miter;stroke-opacity:1"
       d="m 119.0222,158.41569 c 0,0 10.3622,-9.606 3.38803,-23.13083 2.01756,-1.3624 11.02115,-4.64799 11.02115,-4.64799 0,0 11.18471,19.65595 -6.56482,35.72626 -1.6905,-1.40105 -8.25796,-7.4541 -8.25796,-7.4541 z"
       id="path4979"
       sodipodi:nodetypes="cccccc" />
  </g>
</svg>
