<?xml version="1.0" encoding="UTF-8" standalone="no"?>
<!-- Created with Inkscape (http://www.inkscape.org/) -->

<svg
   width="793.70081"
   height="400"
   viewBox="0 0 210 105.8334"
   version="1.1"
   id="svg5"
   xml:space="preserve"
   inkscape:version="1.2.2 (732a01da63, 2022-12-09)"
   sodipodi:docname="leave.svg"
   xmlns:inkscape="http://www.inkscape.org/namespaces/inkscape"
   xmlns:sodipodi="http://sodipodi.sourceforge.net/DTD/sodipodi-0.dtd"
   xmlns="http://www.w3.org/2000/svg"
   xmlns:svg="http://www.w3.org/2000/svg"><sodipodi:namedview
     id="namedview7"
     pagecolor="#ffffff"
     bordercolor="#000000"
     borderopacity="0.25"
     inkscape:showpageshadow="2"
     inkscape:pageopacity="0.0"
     inkscape:pagecheckerboard="0"
     inkscape:deskcolor="#d1d1d1"
     inkscape:document-units="mm"
     showgrid="false"
     inkscape:zoom="0.50333193"
     inkscape:cx="188.74225"
     inkscape:cy="391.39182"
     inkscape:window-width="1366"
     inkscape:window-height="745"
     inkscape:window-x="-8"
     inkscape:window-y="-8"
     inkscape:window-maximized="1"
     inkscape:current-layer="layer1" /><defs
     id="defs2" /><g
     inkscape:label="Capa 1"
     inkscape:groupmode="layer"
     id="layer1"><path
       style="fill:#d5d2c8;fill-opacity:0.429577;stroke:#da8e52;stroke-width:0.264999;stroke-linecap:round;stroke-opacity:1"
       d="m 47.269932,13.389304 -12.424775,1.993716 -9.834642,0.550906 6.026515,7.958006 -0.935153,0.547591 3.639656,18.515637 -4.414483,-4.321965 -4.189814,-0.279822 -3.150082,-1.405745 -3.119334,-2.236326 -2.894672,1.805816 -3.974636,-6.093873 -0.575163,3.180818 -4.9251577,-5.130991 -1.307048,12.843228 -1.193583,-0.335273 -5.9214879,8.305934 -5.3068394,-13.919727 -4.035962,1.181374 1.9284743,-11.655826 -5.0880433,0.39389 -4.937216,4.183784 1.017885,-12.895516 -0.984435,-1.491937 5.5832,-4.783662 c 0,0 1.873328,-3.4238787 1.725656,-3.9283741 -0.147671,-0.5044953 -2.65794,-3.4668211 -2.65794,-3.4668211 l -2.162642,-2.24250091 5.81405,0.2151781 5.008036,-1.602842 6.18323147,1.4764167 -1.81214537,-9.46546249 2.29463957,-8.0658922 0.62142533,1.187402 3.5744153,-5.56497 2.159468,-1.042892 2.9808673,0.359833 -0.144354,8.394992 29.2209354,-0.7483 -5.355516,6.4971072 -7.044398,4.937513 7.173837,3.9250575 4.592743,-1.61821131 -1.984077,3.04550401 3.107135,5.9370107 z"
       id="path356" /><path
       style="fill:#d5d2c8;fill-opacity:0.429577;stroke:#da8e52;stroke-width:0.264999;stroke-linecap:round;stroke-opacity:1"
       d="M 0.12660557,0.62427529 29.766899,36.861285"
       id="path966" /><path
       style="fill:#d5d2c8;fill-opacity:0.429577;stroke:#da8e52;stroke-width:0.264999;stroke-linecap:round;stroke-opacity:1"
       d="M -2.4746823,45.066408 0.25272947,0.58735669"
       id="path968" /><path
       style="fill:#d5d2c8;fill-opacity:0.429577;stroke:#da8e52;stroke-width:0.264999;stroke-linecap:round;stroke-opacity:1"
       d="M 34.441471,-10.789397 0.48960937,0.92880989"
       id="path970" /><path
       style="fill:#d5d2c8;fill-opacity:0.429577;stroke:#da8e52;stroke-width:0.264999;stroke-linecap:round;stroke-opacity:1"
       d="M 41.175907,11.749844 0.94181607,1.0703045"
       id="path972" /><path
       style="fill:#d5d2c8;fill-opacity:0.429577;stroke:#da8e52;stroke-width:0.264999;stroke-linecap:round;stroke-opacity:1"
       d="M -17.496365,25.089878 0.20044187,0.87652309"
       id="path974" /><path
       style="fill:#d5d2c8;fill-opacity:0.429577;stroke:#da8e52;stroke-width:0.264999;stroke-linecap:round;stroke-opacity:1"
       d="M 8.6810263,-19.269832 C 8.5764473,-18.691499 0.57881447,0.76576829 0.57881447,0.76576829"
       id="path976" /><path
       style="fill:#d5d2c8;fill-opacity:0.429577;stroke:#da8e52;stroke-width:0.264999;stroke-linecap:round;stroke-opacity:1"
       d="M -10.452423,3.3100937 0.72648717,1.2702638"
       id="path978" /><path
       style="fill:none;fill-opacity:0.429577;stroke:#da8e52;stroke-width:0.264999;stroke-linecap:round;stroke-opacity:1"
       d="m -3.5303544,12.594681 c -0.020668,-0.23601 -0.05237,-6.1330103 -0.05237,-6.1330103 L -10.287803,6.875142"
       id="path980" /><path
       style="fill:none;fill-opacity:0.429577;stroke:#da8e52;stroke-width:0.264999;stroke-linecap:round;stroke-opacity:1"
       d="m -10.148276,18.598441 -0.09254,-3.458584 -4.693029,-0.320717"
       id="path1036" /><path
       style="fill:none;fill-opacity:0.429577;stroke:#da8e52;stroke-width:0.264999;stroke-linecap:round;stroke-opacity:1"
       d="M 2.6137334,20.188181 -0.68720724,18.007618 -5.2213702,20.545124"
       id="path1038" /><path
       style="fill:none;fill-opacity:0.429577;stroke:#da8e52;stroke-width:0.264999;stroke-linecap:round;stroke-opacity:1"
       d="m 4.6738403,26.895391 -5.8024889,-4.110996 -5.0605767,2.062237"
       id="path1040" /><path
       style="fill:none;fill-opacity:0.429577;stroke:#da8e52;stroke-width:0.264999;stroke-linecap:round;stroke-opacity:1"
       d="m 2.6336028,31.171912 -4.0634183,-4.62004 -2.802712,1.83704"
       id="path1042" /><path
       style="fill:none;fill-opacity:0.429577;stroke:#da8e52;stroke-width:0.264999;stroke-linecap:round;stroke-opacity:1"
       d="M 0.08874627,36.370737 -2.163737,34.464225 -3.9038704,35.796589"
       id="path1044" /><path
       style="fill:none;fill-opacity:0.429577;stroke:#da8e52;stroke-width:0.264999;stroke-linecap:round;stroke-opacity:1"
       d="m 25.064299,27.752966 -2.640701,0.240432 -0.464348,2.217641"
       id="path1046" /><path
       style="fill:none;fill-opacity:0.429577;stroke:#da8e52;stroke-width:0.264999;stroke-linecap:round;stroke-opacity:1"
       d="M 21.662134,22.745721 18.274246,22.91439 17.4521,26.059769"
       id="path1048" /><path
       style="fill:none;fill-opacity:0.429577;stroke:#da8e52;stroke-width:0.264999;stroke-linecap:round;stroke-opacity:1"
       d="m 18.181653,17.470925 -3.708712,0.891935 -1.69112,3.980683"
       id="path1050" /><path
       style="fill:none;fill-opacity:0.429577;stroke:#da8e52;stroke-width:0.264999;stroke-linecap:round;stroke-opacity:1"
       d="m 20.589224,2.8719252 c 0,0 -3.487888,2.473308 -3.435677,2.6516757 0.05221,0.178367 1.113828,4.4667677 1.113828,4.4667677"
       id="path1052" /><path
       style="fill:none;fill-opacity:0.429577;stroke:#da8e52;stroke-width:0.264999;stroke-linecap:round;stroke-opacity:1"
       d="m 29.044346,5.6255171 -3.529229,2.0012902 1.568427,3.7043447"
       id="path1054" /><path
       style="fill:none;fill-opacity:0.429577;stroke:#da8e52;stroke-width:0.264999;stroke-linecap:round;stroke-opacity:1"
       d="m 20.03223,-2.3387808 -2.747359,-2.439424 0.595883,-4.579926"
       id="path1056" /><path
       style="fill:none;fill-opacity:0.429577;stroke:#da8e52;stroke-width:0.264999;stroke-linecap:round;stroke-opacity:1"
       d="m 24.349934,-5.7811678 -2.481942,-0.871108 1.651964,-4.1144552"
       id="path1058" /><path
       style="fill:#c18e40;fill-opacity:0.42957699;stroke:#da8e52;stroke-width:0.264999;stroke-linecap:round;stroke-opacity:1"
       d="m 162.36923,97.382265 12.18269,-3.15152 9.73947,-1.4719 -6.7471,-7.35699 0.8796,-0.63298 -5.3621,-18.092083 4.8008,3.888369 4.19757,-0.114817 3.26816,1.103764 3.31553,1.933551 2.71233,-2.069627 4.52925,5.693753 0.27397,-3.220774 5.38517,4.645874 0.0954,-12.909203 1.2198,0.221717 5.11543,-8.825231 6.59039,13.35994 3.90721,-1.555107 -0.82554,11.785404 5.02858,-0.86989 4.52257,-4.628879 0.19744,12.934119 1.12016,1.39291 -5.10937,5.28677 c 0,0 -1.54357,3.58464 -1.34918,4.07304 0.1944,0.4884 2.97171,3.201945 2.97171,3.201945 l 2.36366,2.02953 -5.80857,0.33168 -4.83542,2.066 -6.29454,-0.88932 2.69289,9.25349 -1.52715,8.24571 -0.73017,-1.12381 -3.03611,5.87601 -2.052,1.24104 -3.00148,-0.0784 -0.64454,-8.37146 -29.02157,3.48869 4.7218,-6.97126 6.54968,-5.57713 -7.51069,-3.23414 -4.42051,2.0423 1.68936,-3.21834 -3.65087,-5.61904 z"
       id="path396" /><path
       style="fill:#d5d2c8;fill-opacity:0.429577;stroke:#da8e52;stroke-width:0.264999;stroke-linecap:round;stroke-opacity:1"
       d="M 210.50286,105.6644 177.59105,72.370543"
       id="path398" /><path
       style="fill:#d5d2c8;fill-opacity:0.429577;stroke:#da8e52;stroke-width:0.264999;stroke-linecap:round;stroke-opacity:1"
       d="M 208.91978,61.174359 210.38076,105.713"
       id="path400" /><path
       style="fill:#d5d2c8;fill-opacity:0.429577;stroke:#da8e52;stroke-width:0.264999;stroke-linecap:round;stroke-opacity:1"
       d="M 177.41128,120.24963 210.11287,105.3953"
       id="path402" /><path
       style="fill:#d5d2c8;fill-opacity:0.429577;stroke:#da8e52;stroke-width:0.264999;stroke-linecap:round;stroke-opacity:1"
       d="m 168.59028,98.442285 41.05909,6.854605"
       id="path404" /><path
       style="fill:#d5d2c8;fill-opacity:0.429577;stroke:#da8e52;stroke-width:0.264999;stroke-linecap:round;stroke-opacity:1"
       d="M 225.75078,79.652175 210.40566,105.4202"
       id="path406" /><path
       style="fill:#d5d2c8;fill-opacity:0.429577;stroke:#da8e52;stroke-width:0.264999;stroke-linecap:round;stroke-opacity:1"
       d="m 203.85418,126.27384 c 0.0498,-0.5856 6.18518,-20.70784 6.18518,-20.70784"
       id="path408" /><path
       style="fill:#d5d2c8;fill-opacity:0.429577;stroke:#da8e52;stroke-width:0.264999;stroke-linecap:round;stroke-opacity:1"
       d="m 220.78297,101.99713 -10.938,3.08046"
       id="path410" /><path
       style="fill:none;fill-opacity:0.429577;stroke:#da8e52;stroke-width:0.264999;stroke-linecap:round;stroke-opacity:1"
       d="m 213.01971,93.403515 c 0.0428,0.23302 0.62802,6.10099 0.62802,6.10099 l 6.63664,-1.04122"
       id="path412" /><path
       style="fill:none;fill-opacity:0.429577;stroke:#da8e52;stroke-width:0.264999;stroke-linecap:round;stroke-opacity:1"
       d="m 219.04467,86.804885 0.41683,3.43462 4.70241,-0.12135"
       id="path414" /><path
       style="fill:none;fill-opacity:0.429577;stroke:#da8e52;stroke-width:0.264999;stroke-linecap:round;stroke-opacity:1"
       d="m 206.18977,86.420455 3.4911,1.86099 4.27588,-2.95204"
       id="path416" /><path
       style="fill:none;fill-opacity:0.429577;stroke:#da8e52;stroke-width:0.264999;stroke-linecap:round;stroke-opacity:1"
       d="m 203.509,79.936305 6.16286,3.54801 4.84458,-2.52829"
       id="path418" /><path
       style="fill:none;fill-opacity:0.429577;stroke:#da8e52;stroke-width:0.264999;stroke-linecap:round;stroke-opacity:1"
       d="m 205.13867,75.487105 4.47927,4.2181 2.61784,-2.09209"
       id="path420" /><path
       style="fill:none;fill-opacity:0.429577;stroke:#da8e52;stroke-width:0.264999;stroke-linecap:round;stroke-opacity:1"
       d="m 207.18415,70.072305 2.42154,1.686591 1.60735,-1.489863"
       id="path422" /><path
       style="fill:none;fill-opacity:0.429577;stroke:#da8e52;stroke-width:0.264999;stroke-linecap:round;stroke-opacity:1"
       d="m 183.1281,80.997075 2.60646,-0.48732 0.25407,-2.25144"
       id="path424" /><path
       style="fill:none;fill-opacity:0.429577;stroke:#da8e52;stroke-width:0.264999;stroke-linecap:round;stroke-opacity:1"
       d="m 186.98538,85.662755 3.35709,-0.48603 0.52318,-3.20868"
       id="path426" /><path
       style="fill:none;fill-opacity:0.429577;stroke:#da8e52;stroke-width:0.264999;stroke-linecap:round;stroke-opacity:1"
       d="m 190.94576,90.587445 3.60859,-1.23622 1.30988,-4.12189"
       id="path428" /><path
       style="fill:none;fill-opacity:0.429577;stroke:#da8e52;stroke-width:0.264999;stroke-linecap:round;stroke-opacity:1"
       d="m 189.9196,105.34801 c 0,0 3.24025,-2.78987 3.17152,-2.96254 -0.0687,-0.17269 -1.52831,-4.342465 -1.52831,-4.342465"
       id="path430" /><path
       style="fill:none;fill-opacity:0.429577;stroke:#da8e52;stroke-width:0.264999;stroke-linecap:round;stroke-opacity:1"
       d="m 181.24328,103.40048 3.32573,-2.32383 -1.90932,-3.540715"
       id="path432" /><path
       style="fill:none;fill-opacity:0.429577;stroke:#da8e52;stroke-width:0.264999;stroke-linecap:round;stroke-opacity:1"
       d="m 190.9634,110.4834 2.96427,2.17068 -0.16323,4.61565"
       id="path434" /><path
       style="fill:none;fill-opacity:0.429577;stroke:#da8e52;stroke-width:0.264999;stroke-linecap:round;stroke-opacity:1"
       d="m 186.98798,114.31599 2.55277,0.63422 -1.25834,4.25139"
       id="path436" /></g></svg>
