<?xml version="1.0" encoding="UTF-8" standalone="no"?>
<!-- Created with Inkscape (http://www.inkscape.org/) -->

<svg
   width="210mm"
   height="297mm"
   viewBox="0 0 210 297"
   version="1.1"
   id="svg5"
   inkscape:version="1.2.2 (732a01da63, 2022-12-09)"
   sodipodi:docname="SavedBack.svg"
   xmlns:inkscape="http://www.inkscape.org/namespaces/inkscape"
   xmlns:sodipodi="http://sodipodi.sourceforge.net/DTD/sodipodi-0.dtd"
   xmlns="http://www.w3.org/2000/svg"
   xmlns:svg="http://www.w3.org/2000/svg">
  <sodipodi:namedview
     id="namedview7"
     pagecolor="#ffffff"
     bordercolor="#000000"
     borderopacity="0.25"
     inkscape:showpageshadow="2"
     inkscape:pageopacity="0.0"
     inkscape:pagecheckerboard="0"
     inkscape:deskcolor="#d1d1d1"
     inkscape:document-units="mm"
     showgrid="false"
     inkscape:zoom="0.25166597"
     inkscape:cx="486.75632"
     inkscape:cy="437.08731"
     inkscape:window-width="1366"
     inkscape:window-height="745"
     inkscape:window-x="-8"
     inkscape:window-y="-8"
     inkscape:window-maximized="1"
     inkscape:current-layer="layer1" />
  <defs
     id="defs2" />
  <g
     inkscape:label="Capa 1"
     inkscape:groupmode="layer"
     id="layer1">
    <rect
       style="fill:#373737;stroke-width:0.158492;stroke-linecap:round;stroke-linejoin:round"
       id="rect234"
       width="210"
       height="296.03448"
       x="0"
       y="0" />
    <path
       style="fill:#484848;fill-opacity:1;stroke-width:0.148912;stroke-linecap:round;stroke-linejoin:round"
       d="m 0,100.07538 v 47.94187 l 26.170484,-29.54959 26.329515,29.72915 v -48.12143 z"
       id="path290"
       sodipodi:nodetypes="cccccc" />
    <path
       style="fill:#3f3f3f;fill-opacity:1;stroke-width:0.148912;stroke-linecap:round;stroke-linejoin:round"
       d="m 0,131.15418 26.249998,-27.78691 26.250001,29.63937 V 77.021365 H 0 Z"
       id="path1278"
       sodipodi:nodetypes="cccccc" />
    <path
       style="fill:#343434;fill-opacity:1;stroke-width:0.148912;stroke-linecap:round;stroke-linejoin:round"
       d="M 0,109.85128 26.249998,82.06437 52.499999,111.70373 V 45.016337 H 0 Z"
       id="path1597"
       sodipodi:nodetypes="cccccc" />
    <path
       style="fill:#2f2f2f;fill-opacity:1;stroke-width:0.148912;stroke-linecap:round;stroke-linejoin:round"
       d="M 0,87.622143 26.249998,59.835237 52.499999,89.474601 V 29.821645 H 0 Z"
       id="path1599"
       sodipodi:nodetypes="cccccc" />
    <path
       style="fill:#292929;fill-opacity:1;stroke-width:0.148912;stroke-linecap:round;stroke-linejoin:round"
       d="M 0,65.467874 26.249998,37.680968 52.499999,67.320332 V 7.6673763 H 0 Z"
       id="path1650"
       sodipodi:nodetypes="cccccc" />
    <path
       style="fill:#262626;fill-opacity:1;stroke-width:0.148912;stroke-linecap:round;stroke-linejoin:round"
       d="M 0,44.771657 26.249998,16.984751 52.499999,46.624115 V 0 H 0 Z"
       id="path1652"
       sodipodi:nodetypes="cccccc" />
    <path
       style="fill:#212121;fill-opacity:1;stroke-width:0.148912;stroke-linecap:round;stroke-linejoin:round"
       d="M 0,27.974019 26.249998,0.18711444 52.499999,29.826478 V 0 H 0 Z"
       id="path1654"
       sodipodi:nodetypes="cccccc" />
    <path
       style="fill:#484848;fill-opacity:1;stroke-width:0.148912;stroke-linecap:round;stroke-linejoin:round"
       d="m 52.499999,100.07538 v 47.94187 L 78.670483,118.46766 105,148.19681 v -48.12143 z"
       id="path1656"
       sodipodi:nodetypes="cccccc" />
    <path
       style="fill:#3f3f3f;fill-opacity:1;stroke-width:0.148912;stroke-linecap:round;stroke-linejoin:round"
       d="M 52.499999,131.15418 78.749997,103.36727 105,133.00664 V 77.021365 H 52.499999 Z"
       id="path1658"
       sodipodi:nodetypes="cccccc" />
    <path
       style="fill:#343434;fill-opacity:1;stroke-width:0.148912;stroke-linecap:round;stroke-linejoin:round"
       d="M 52.499999,109.85128 78.749997,82.06437 105,111.70373 V 45.016332 H 52.499999 Z"
       id="path1660"
       sodipodi:nodetypes="cccccc" />
    <path
       style="fill:#2f2f2f;fill-opacity:1;stroke-width:0.148912;stroke-linecap:round;stroke-linejoin:round"
       d="M 52.499999,87.622143 78.749997,59.835237 105,89.474601 V 29.821648 H 52.499999 Z"
       id="path1662"
       sodipodi:nodetypes="cccccc" />
    <path
       style="fill:#292929;fill-opacity:1;stroke-width:0.148912;stroke-linecap:round;stroke-linejoin:round"
       d="M 52.499999,65.467874 78.749997,37.680965 105,67.320332 V 7.6673733 H 52.499999 Z"
       id="path1664"
       sodipodi:nodetypes="cccccc" />
    <path
       style="fill:#262626;fill-opacity:1;stroke-width:0.148912;stroke-linecap:round;stroke-linejoin:round"
       d="M 52.499999,44.77166 78.749997,16.984755 105,46.624118 V 0 H 52.499999 Z"
       id="path1666"
       sodipodi:nodetypes="cccccc" />
    <path
       style="fill:#212121;fill-opacity:1;stroke-width:0.148912;stroke-linecap:round;stroke-linejoin:round"
       d="M 52.499999,27.974014 78.749997,0.18710975 105,29.826482 V 0 H 52.499999 Z"
       id="path1668"
       sodipodi:nodetypes="cccccc" />
    <path
       style="fill:#484848;fill-opacity:1;stroke-width:0.148912;stroke-linecap:round;stroke-linejoin:round"
       d="m 105,100.07538 v 47.94187 L 131.17048,118.46766 157.5,148.19681 v -48.12143 z"
       id="path1670"
       sodipodi:nodetypes="cccccc" />
    <path
       style="fill:#3f3f3f;fill-opacity:1;stroke-width:0.148912;stroke-linecap:round;stroke-linejoin:round"
       d="m 105,131.15418 26.25,-27.78691 26.25,29.63937 V 77.021365 H 105 Z"
       id="path1672"
       sodipodi:nodetypes="cccccc" />
    <path
       style="fill:#343434;fill-opacity:1;stroke-width:0.148912;stroke-linecap:round;stroke-linejoin:round"
       d="m 105,109.85128 26.25,-27.78691 26.25,29.63936 V 45.016337 H 105 Z"
       id="path1674"
       sodipodi:nodetypes="cccccc" />
    <path
       style="fill:#2f2f2f;fill-opacity:1;stroke-width:0.148912;stroke-linecap:round;stroke-linejoin:round"
       d="M 105,87.622143 131.25,59.835237 157.5,89.474601 V 29.821645 H 105 Z"
       id="path1676"
       sodipodi:nodetypes="cccccc" />
    <path
       style="fill:#292929;fill-opacity:1;stroke-width:0.148912;stroke-linecap:round;stroke-linejoin:round"
       d="M 105,65.467874 131.25,37.680968 157.5,67.320332 V 7.6673763 H 105 Z"
       id="path1678"
       sodipodi:nodetypes="cccccc" />
    <path
       style="fill:#262626;fill-opacity:1;stroke-width:0.148912;stroke-linecap:round;stroke-linejoin:round"
       d="M 105,44.771657 131.25,16.984751 157.5,46.624115 V 0 H 105 Z"
       id="path1680"
       sodipodi:nodetypes="cccccc" />
    <path
       style="fill:#212121;fill-opacity:1;stroke-width:0.148912;stroke-linecap:round;stroke-linejoin:round"
       d="M 105,27.974019 131.25,0.18711444 157.5,29.826478 V 0 H 105 Z"
       id="path1682"
       sodipodi:nodetypes="cccccc" />
    <path
       style="fill:#484848;fill-opacity:1;stroke-width:0.148912;stroke-linecap:round;stroke-linejoin:round"
       d="m 157.5,100.07538 v 47.94187 L 183.67048,118.46766 210,148.19681 v -48.12143 z"
       id="path1684"
       sodipodi:nodetypes="cccccc" />
    <path
       style="fill:#3f3f3f;fill-opacity:1;stroke-width:0.148912;stroke-linecap:round;stroke-linejoin:round"
       d="M 157.5,131.15418 183.75,103.36727 210,133.00664 V 77.021365 h -52.5 z"
       id="path1686"
       sodipodi:nodetypes="cccccc" />
    <path
       style="fill:#343434;fill-opacity:1;stroke-width:0.148912;stroke-linecap:round;stroke-linejoin:round"
       d="M 157.5,109.85128 183.75,82.06437 210,111.70373 V 45.016332 h -52.5 z"
       id="path1688"
       sodipodi:nodetypes="cccccc" />
    <path
       style="fill:#2f2f2f;fill-opacity:1;stroke-width:0.148912;stroke-linecap:round;stroke-linejoin:round"
       d="M 157.5,87.622143 183.75,59.835237 210,89.474601 V 29.821648 h -52.5 z"
       id="path1690"
       sodipodi:nodetypes="cccccc" />
    <path
       style="fill:#292929;fill-opacity:1;stroke-width:0.148912;stroke-linecap:round;stroke-linejoin:round"
       d="M 157.5,65.467874 183.75,37.680965 210,67.320332 V 7.6673733 h -52.5 z"
       id="path1692"
       sodipodi:nodetypes="cccccc" />
    <path
       style="fill:#262626;fill-opacity:1;stroke-width:0.148912;stroke-linecap:round;stroke-linejoin:round"
       d="M 157.5,44.77166 183.75,16.984755 210,46.624118 V 0 h -52.5 z"
       id="path1694"
       sodipodi:nodetypes="cccccc" />
    <path
       style="fill:#212121;fill-opacity:1;stroke-width:0.148912;stroke-linecap:round;stroke-linejoin:round"
       d="M 157.5,27.974014 183.75,0.18710975 210,29.826482 V 0 h -52.5 z"
       id="path1696"
       sodipodi:nodetypes="cccccc" />
    <path
       style="fill:#484848;fill-opacity:1;stroke-width:0.148912;stroke-linecap:round;stroke-linejoin:round"
       d="m 0,196.92462 v -47.94187 l 26.170484,29.54959 26.329515,-29.72915 v 48.12143 z"
       id="path1698"
       sodipodi:nodetypes="cccccc" />
    <path
       style="fill:#3f3f3f;fill-opacity:1;stroke-width:0.148912;stroke-linecap:round;stroke-linejoin:round"
       d="m 0,165.84582 26.249998,27.78691 26.250001,-29.63937 v 55.98527 H 0 Z"
       id="path1700"
       sodipodi:nodetypes="cccccc" />
    <path
       style="fill:#343434;fill-opacity:1;stroke-width:0.148912;stroke-linecap:round;stroke-linejoin:round"
       d="m 0,187.14872 26.249998,27.78691 26.250001,-29.63936 v 66.6874 H 0 Z"
       id="path1702"
       sodipodi:nodetypes="cccccc" />
    <path
       style="fill:#2f2f2f;fill-opacity:1;stroke-width:0.148912;stroke-linecap:round;stroke-linejoin:round"
       d="m 0,209.37786 26.249998,27.7869 26.250001,-29.63936 v 59.65295 H 0 Z"
       id="path1704"
       sodipodi:nodetypes="cccccc" />
    <path
       style="fill:#292929;fill-opacity:1;stroke-width:0.148912;stroke-linecap:round;stroke-linejoin:round"
       d="m 0,231.53212 26.249998,27.78691 26.250001,-29.63937 v 59.65297 H 0 Z"
       id="path1706"
       sodipodi:nodetypes="cccccc" />
    <path
       style="fill:#262626;fill-opacity:1;stroke-width:0.148912;stroke-linecap:round;stroke-linejoin:round"
       d="m 0,252.22834 26.249998,27.7869 26.250001,-29.63936 V 297 H 0 Z"
       id="path1708"
       sodipodi:nodetypes="cccccc" />
    <path
       style="fill:#212121;fill-opacity:1;stroke-width:0.148912;stroke-linecap:round;stroke-linejoin:round"
       d="m 0,269.02599 26.249998,27.7869 26.250001,-29.63937 V 297 H 0 Z"
       id="path1710"
       sodipodi:nodetypes="cccccc" />
    <path
       style="fill:#484848;fill-opacity:1;stroke-width:0.148912;stroke-linecap:round;stroke-linejoin:round"
       d="M 52.499999,196.92462 V 148.98275 L 78.670483,178.53234 105,148.80319 v 48.12143 z"
       id="path1712"
       sodipodi:nodetypes="cccccc" />
    <path
       style="fill:#3f3f3f;fill-opacity:1;stroke-width:0.148912;stroke-linecap:round;stroke-linejoin:round"
       d="M 52.499999,165.84582 78.749997,193.63273 105,163.99336 v 55.98527 H 52.499999 Z"
       id="path1714"
       sodipodi:nodetypes="cccccc" />
    <path
       style="fill:#343434;fill-opacity:1;stroke-width:0.148912;stroke-linecap:round;stroke-linejoin:round"
       d="M 52.499999,187.14872 78.749997,214.93563 105,185.29627 v 66.6874 H 52.499999 Z"
       id="path1716"
       sodipodi:nodetypes="cccccc" />
    <path
       style="fill:#2f2f2f;fill-opacity:1;stroke-width:0.148912;stroke-linecap:round;stroke-linejoin:round"
       d="M 52.499999,209.37786 78.749997,237.16476 105,207.5254 v 59.65295 H 52.499999 Z"
       id="path1718"
       sodipodi:nodetypes="cccccc" />
    <path
       style="fill:#292929;fill-opacity:1;stroke-width:0.148912;stroke-linecap:round;stroke-linejoin:round"
       d="M 52.499999,231.53212 78.749997,259.31903 105,229.67966 v 59.65297 H 52.499999 Z"
       id="path1720"
       sodipodi:nodetypes="cccccc" />
    <path
       style="fill:#262626;fill-opacity:1;stroke-width:0.148912;stroke-linecap:round;stroke-linejoin:round"
       d="M 52.499999,252.22834 78.749997,280.01524 105,250.37588 V 297 H 52.499999 Z"
       id="path1722"
       sodipodi:nodetypes="cccccc" />
    <path
       style="fill:#212121;fill-opacity:1;stroke-width:0.148912;stroke-linecap:round;stroke-linejoin:round"
       d="M 52.499999,269.02599 78.749997,296.81289 105,267.17352 V 297 H 52.499999 Z"
       id="path1724"
       sodipodi:nodetypes="cccccc" />
    <path
       style="fill:#484848;fill-opacity:1;stroke-width:0.148912;stroke-linecap:round;stroke-linejoin:round"
       d="M 105,196.92462 V 148.98275 L 131.17048,178.53234 157.5,148.80319 v 48.12143 z"
       id="path1726"
       sodipodi:nodetypes="cccccc" />
    <path
       style="fill:#3f3f3f;fill-opacity:1;stroke-width:0.148912;stroke-linecap:round;stroke-linejoin:round"
       d="m 105,165.84582 26.25,27.78691 26.25,-29.63937 v 55.98527 H 105 Z"
       id="path1728"
       sodipodi:nodetypes="cccccc" />
    <path
       style="fill:#343434;fill-opacity:1;stroke-width:0.148912;stroke-linecap:round;stroke-linejoin:round"
       d="m 105,187.14872 26.25,27.78691 26.25,-29.63936 v 66.6874 H 105 Z"
       id="path1730"
       sodipodi:nodetypes="cccccc" />
    <path
       style="fill:#2f2f2f;fill-opacity:1;stroke-width:0.148912;stroke-linecap:round;stroke-linejoin:round"
       d="m 105,209.37786 26.25,27.7869 26.25,-29.63936 v 59.65295 H 105 Z"
       id="path1732"
       sodipodi:nodetypes="cccccc" />
    <path
       style="fill:#292929;fill-opacity:1;stroke-width:0.148912;stroke-linecap:round;stroke-linejoin:round"
       d="m 105,231.53212 26.25,27.78691 26.25,-29.63937 v 59.65297 H 105 Z"
       id="path1734"
       sodipodi:nodetypes="cccccc" />
    <path
       style="fill:#262626;fill-opacity:1;stroke-width:0.148912;stroke-linecap:round;stroke-linejoin:round"
       d="m 105,252.22834 26.25,27.7869 26.25,-29.63936 V 297 H 105 Z"
       id="path1736"
       sodipodi:nodetypes="cccccc" />
    <path
       style="fill:#212121;fill-opacity:1;stroke-width:0.148912;stroke-linecap:round;stroke-linejoin:round"
       d="m 105,269.02599 26.25,27.7869 26.25,-29.63937 V 297 H 105 Z"
       id="path1738"
       sodipodi:nodetypes="cccccc" />
    <path
       style="fill:#484848;fill-opacity:1;stroke-width:0.148912;stroke-linecap:round;stroke-linejoin:round"
       d="M 157.5,196.92462 V 148.98275 L 183.67048,178.53234 210,148.80319 v 48.12143 z"
       id="path1740"
       sodipodi:nodetypes="cccccc" />
    <path
       style="fill:#3f3f3f;fill-opacity:1;stroke-width:0.148912;stroke-linecap:round;stroke-linejoin:round"
       d="m 157.5,165.84582 26.25,27.78691 26.25,-29.63937 v 55.98527 h -52.5 z"
       id="path1742"
       sodipodi:nodetypes="cccccc" />
    <path
       style="fill:#343434;fill-opacity:1;stroke-width:0.148912;stroke-linecap:round;stroke-linejoin:round"
       d="m 157.5,187.14872 26.25,27.78691 26.25,-29.63936 v 66.6874 h -52.5 z"
       id="path1744"
       sodipodi:nodetypes="cccccc" />
    <path
       style="fill:#2f2f2f;fill-opacity:1;stroke-width:0.148912;stroke-linecap:round;stroke-linejoin:round"
       d="m 157.5,209.37786 26.25,27.7869 L 210,207.5254 v 59.65295 h -52.5 z"
       id="path1746"
       sodipodi:nodetypes="cccccc" />
    <path
       style="fill:#292929;fill-opacity:1;stroke-width:0.148912;stroke-linecap:round;stroke-linejoin:round"
       d="m 157.5,231.53212 26.25,27.78691 26.25,-29.63937 v 59.65297 h -52.5 z"
       id="path1748"
       sodipodi:nodetypes="cccccc" />
    <path
       style="fill:#262626;fill-opacity:1;stroke-width:0.148912;stroke-linecap:round;stroke-linejoin:round"
       d="m 157.5,252.22834 26.25,27.7869 L 210,250.37588 V 297 h -52.5 z"
       id="path1750"
       sodipodi:nodetypes="cccccc" />
    <path
       style="fill:#212121;fill-opacity:1;stroke-width:0.148912;stroke-linecap:round;stroke-linejoin:round"
       d="m 157.5,269.02599 26.25,27.7869 L 210,267.17352 V 297 h -52.5 z"
       id="path1752"
       sodipodi:nodetypes="cccccc" />
  </g>
</svg>
