<?xml version="1.0" encoding="UTF-8" standalone="no"?>
<svg
   width="16"
   height="16"
   fill="currentColor"
   class="bi bi-share-fill"
   viewBox="0 0 16 16"
   version="1.1"
   id="svg4"
   sodipodi:docname="share-fill.svg"
   inkscape:version="1.2.2 (732a01da63, 2022-12-09)"
   xmlns:inkscape="http://www.inkscape.org/namespaces/inkscape"
   xmlns:sodipodi="http://sodipodi.sourceforge.net/DTD/sodipodi-0.dtd"
   xmlns="http://www.w3.org/2000/svg"
   xmlns:svg="http://www.w3.org/2000/svg">
  <defs
     id="defs8" />
  <sodipodi:namedview
     id="namedview6"
     pagecolor="#ffffff"
     bordercolor="#000000"
     borderopacity="0.25"
     inkscape:showpageshadow="2"
     inkscape:pageopacity="0.0"
     inkscape:pagecheckerboard="0"
     inkscape:deskcolor="#d1d1d1"
     showgrid="false"
     inkscape:zoom="24.969708"
     inkscape:cx="10.632884"
     inkscape:cy="9.1310638"
     inkscape:window-width="1366"
     inkscape:window-height="745"
     inkscape:window-x="-8"
     inkscape:window-y="-8"
     inkscape:window-maximized="1"
     inkscape:current-layer="svg4" />
  <path
     d="M11 2.5a2.5 2.5 0 1 1 .603 1.628l-6.718 3.12a2.499 2.499 0 0 1 0 1.504l6.718 3.12a2.5 2.5 0 1 1-.488.876l-6.718-3.12a2.5 2.5 0 1 1 0-3.256l6.718-3.12A2.5 2.5 0 0 1 11 2.5z"
     id="path2"
     style="fill:#bfbfbf;fill-opacity:1" />
  <circle
     style="fill:#2e2e2e;fill-opacity:1;stroke-width:0.297479;stroke-linecap:round;stroke-linejoin:round"
     id="path897"
     cx="13.537016"
     cy="2.4629846"
     r="1.1814317" />
  <circle
     style="fill:#2e2e2e;fill-opacity:1;stroke-width:0.297479;stroke-linecap:round;stroke-linejoin:round"
     id="circle2351"
     cx="2.436131"
     cy="8.0008097"
     r="1.1814317" />
  <circle
     style="fill:#2e2e2e;fill-opacity:1;stroke-width:0.297479;stroke-linecap:round;stroke-linejoin:round"
     id="circle2353"
     cx="13.537016"
     cy="13.605507"
     r="1.1814317" />
  <circle
     style="fill:#b4e7da;fill-opacity:1;stroke-width:0.240435;stroke-linecap:round;stroke-linejoin:round"
     id="circle2355"
     cx="13.537016"
     cy="13.605507"
     r="0.95488298" />
  <circle
     style="fill:#b4e7da;fill-opacity:1;stroke-width:0.240435;stroke-linecap:round;stroke-linejoin:round"
     id="circle2357"
     cx="13.537016"
     cy="2.4763033"
     r="0.95488298" />
  <circle
     style="fill:#b4e7da;fill-opacity:1;stroke-width:0.240435;stroke-linecap:round;stroke-linejoin:round"
     id="circle2359"
     cx="2.436131"
     cy="7.9984274"
     r="0.95488298" />
</svg>
